<svg id="Layer_1" xmlns="http://www.w3.org/2000/svg" viewBox="122.1 -25.4 188.8 103"><style>.st0{fill:#004281;} .st1{fill:#A81D3F;}</style><path class="st0" d="M273 55.8s.5 3.5-2.2 3.4h-14.6s-1.8.1-1.7-1.7V45.9s.1-1.6 1.7-1.7h13.5s3.6-.2 3.3 3h3.7v-3c0-1.7-1.4-3.1-3.2-3.2h-19.6c-1.7.1-3.2 1.5-3.2 3.2v15.5c0 1.7 1.4 3.1 3.2 3.2h19.6c1.8-.1 3.2-1.5 3.2-3.2v-4l-3.7.1zM306.8 57.6c.1 1.5-1.1 2.2-2.4 2.2h-14.8c-1.5 0-2.4-.7-2.4-2.2V46.2c0-1.5.9-2.2 2.4-2.2h14.8c1.3 0 2.4.7 2.4 2.2v11.4zm.7-16.5h-20.8c-1.9 0-3.4 1.4-3.4 3.2v15.6c0 1.8 1.5 3.2 3.4 3.2h20.8c1.9 0 3.4-1.4 3.4-3.2V44.2c-.1-1.7-1.6-3.1-3.4-3.1M243.9 41v22h-5.6l-17.4-16.4V63h-4.6l.1-22h4.8l18.2 16.7-.1-16.7zM209.8 45v-3.9l-22.2-.1v22h22.6v-3.9h-17.7v-4.9h17.3V50h-17.3v-5zM174.4 50.9h-14.5v-6.1h13s4.2-.4 4.3 1.8v1.6c0 .1.3 2.8-2.8 2.7m5.4 2.9s-.8-.6-1.7-.6c0 0 .2 0 .6-.1 2.6-.3 2.7-3.1 2.7-3.1l-.1-5.6c-.6-3.9-6.3-3.5-6.3-3.5h-19.7v22h4.5v-8.3h14c3.1 0 2.8 3.1 2.8 3.1v5.2h4.3v-6.6c.1-1.7-1.1-2.5-1.1-2.5M132.6 52.6l4.6-8.2 4.8 8.2h-9.4zm7.3-11.5h-5.4l-12.4 22h5.3l3.5-6.1h13l3.8 6.1h5.4l-13.2-22zM157.7 71.4c0-.8-.3-1.5-3.1-1.5h-.6v2.8c2.8.1 3.7-.4 3.7-1.3m-7.3-2.4h4.4c2.7 0 6.8.1 6.8 2.2 0 .8-.8 2-3.8 2.2l5 4.2H159l-5-4.2h-.1v4.2h-3.7V69h.2zM175.4 69v1h-6.2v2.6h5.5v1h-5.5v2.9h6.2v1h-9.8V69zM184.9 73.7l-1.4-3.1-2.2 4.3h4.4l-.8-1.2zm.1-4.7l5.9 8.5h-3.7l-1-1.7h-5.5l-1 1.7h-3.6l6-8.5h2.9zM196.9 69v7.5h6.2v1h-9.8V69zM222.6 69v1h-6.1v2.6h5.5v1h-5.5v2.9h6.1v1h-9.8V69zM233.9 70.3c-1-.2-1.9-.4-3.1-.4-2 0-3.2.5-3.2 1.1 0 .4.3.6 1 .9l2.8.9c2.5.8 3.9 1.3 3.9 2.5s-2.4 2.2-6.5 2.2c-1.4 0-2.9-.1-4-.4v-1.2c1.1.3 2.2.4 3.6.4 2.3 0 3.2-.6 3.2-1.2 0-1.7-7.7-2-7.7-4.3 0-1.2 2-2.2 6.1-2.2 1.4 0 2.7.1 3.9.3v1.4zM248.1 69v1h-4.2v7.5h-3.6V70H236v-1zM255.5 73.7l-1.4-3.1h-.1l-2.2 4.3h4.4l-.7-1.2zm.1-4.7l5.9 8.5h-3.7l-1-1.7h-5.5l-1 1.7h-3.6l6-8.5h2.9zM272.2 69v1h-4.1v7.5h-3.6V70h-4.3v-1zM284.1 69v1H278v2.6h5.4v1H278v2.9h6.1v1h-9.8V69z"/><path class="st1" d="M169.7 13.4H195l1.2 2h-27.6zM167.3 17.3h30.1l1.1 2h-32.3zM182.2-8.8L189 2.9l-3.8 6.6h7.6l.9 1.6.1.2H171l1-1.7.1-.2z"/><path class="st1" d="M240.3-25.4h-12.7l27.1 46.7H230l-1.1-1.9h12.2l-1.2-1.9h-12.1l-1.2-2.1h12.1l-1-1.9h-12.1l-1.3-2.3h12l-.1-.2-1-1.7h-12l5.3-11.5-6.4-11.4-5.9 12.4L202-25.1h-12.5L216 21.2h-51l-7.5 12.2h15.8l5-10h22.5l5.8 10h29.6l-4.8-9.9h12.4l5.4 9.9h26.1z"/></svg>